<svg width="43" height="58" viewBox="0 0 43 58" fill="none" xmlns="http://www.w3.org/2000/svg">
    <path d="M27 50.6963L29.5 46.3662M32 49.6963L34.5 45.3662M36 51.6963L38.5 47.3662" stroke="#231815" stroke-width="2" stroke-linecap="round" stroke-linejoin="round"/>
    <path d="M10 50.6963L12.5 46.3662M15 49.6963L17.5 45.3662M19 51.6963L21.5 47.3662" stroke="#231815" stroke-width="2" stroke-linecap="round" stroke-linejoin="round"/>
    <path fill-rule="evenodd" clip-rule="evenodd" d="M29.8127 17.0641C29.8127 17.0641 29.997 18 30.0599 18.009C33.4537 18.4929 36 20.4725 36 24C36 27.866 32.866 31 29 31H11C7.13401 31 4 27.866 4 24C4 20.4725 6.60923 17.5544 10.003 17.0705C10.0659 17.0615 10.1275 17.0596 10.1873 17.0641C11.0889 12.4677 15.1395 9 20 9C24.8605 9 28.9111 12.4677 29.8127 17.0641Z" fill="#F3F3F3"/>
    <path d="M29 31H29.4118C33.0503 31 36 28.1272 36 24.5833C36 21.3383 33.5268 18.6559 30.3161 18.2266C29.8697 13.0587 25.4215 9 20 9C15.2043 9 11.1702 12.1758 9.99378 16.486C6.57182 17.1766 4 20.1291 4 23.6667C4 27.5434 7.08864 30.7175 11 30.9822" stroke="#231815" stroke-width="2" stroke-linecap="round" stroke-linejoin="round"/>
    <path d="M4 39.6963L6.5 35.3662M9 38.6963L11.5 34.3662M13 40.6963L15.5 36.3662" stroke="#231815" stroke-width="2" stroke-linecap="round" stroke-linejoin="round"/>
    <path d="M20 40.6963L22.5 36.3662M25 39.6963L27.5 35.3662M29 41.6963L31.5 37.3662" stroke="#231815" stroke-width="2" stroke-linecap="round" stroke-linejoin="round"/>
</svg>
